<svg id="instagram-gradient" xmlns="http://www.w3.org/2000/svg" xmlns:xlink="http://www.w3.org/1999/xlink" viewBox="0 0 387 387">
  <g>
    <image width="388" height="388" transform="translate(-0.5 -0.5)" xlink:href="instagram-gradient1.png"/>
    <g>
      <path d="M260.06,58.38H139.94a82,82,0,0,0-82,82V260.52a82,82,0,0,0,82,82H260.06a82,82,0,0,0,82-82V140.4A82,82,0,0,0,260.06,58.38Zm55.85,204.26a54.44,54.44,0,0,1-54.44,54.44H138.53a54.44,54.44,0,0,1-54.44-54.44V139.7a54.44,54.44,0,0,1,54.44-54.44H261.47a54.44,54.44,0,0,1,54.44,54.44Z" transform="translate(-6.5 -6.5)" fill="#fff"/>
      <path d="M200,127.44a73.73,73.73,0,1,0,73.73,73.73A73.73,73.73,0,0,0,200,127.44ZM200,249a47.8,47.8,0,1,1,47.8-47.79A47.79,47.79,0,0,1,200,249Z" transform="translate(-6.5 -6.5)" fill="#fff"/>
      <circle cx="269.69" cy="118.13" r="17.18" fill="#fff"/>
    </g>
  </g>
</svg>
